<?xml version="1.0" encoding="utf-8"?>
<!-- Generator: Adobe Illustrator 22.1.0, SVG Export Plug-In . SVG Version: 6.00 Build 0)  -->
<svg version="1.1"
	 id="svg8" inkscape:version="0.92.4 5da689c313, 2019-01-14" sodipodi:docname="Logo (Pre Merging).svg" xmlns:cc="http://creativecommons.org/ns#" xmlns:dc="http://purl.org/dc/elements/1.1/" xmlns:inkscape="http://www.inkscape.org/namespaces/inkscape" xmlns:rdf="http://www.w3.org/1999/02/22-rdf-syntax-ns#" xmlns:sodipodi="http://sodipodi.sourceforge.net/DTD/sodipodi-0.dtd" xmlns:svg="http://www.w3.org/2000/svg"
	 xmlns="http://www.w3.org/2000/svg" xmlns:xlink="http://www.w3.org/1999/xlink" x="0px" y="0px" viewBox="0 0 898 192"
	 style="enable-background:new 0 0 898 192;" xml:space="preserve">
<style type="text/css">
	.st0{fill:#00ACFF;}
	.st1{fill:#FFFFFF;}
	.st2{font-family:'Arial-BoldMT';}
	.st3{font-size:144px;}
</style>
<sodipodi:namedview  bordercolor="#666666" borderopacity="1.0" fit-margin-bottom="0" fit-margin-left="0" fit-margin-right="0" fit-margin-top="0" id="base" inkscape:bbox-nodes="true" inkscape:bbox-paths="true" inkscape:current-layer="layer1" inkscape:cx="279.50002" inkscape:cy="312.95353" inkscape:document-units="mm" inkscape:guide-bbox="true" inkscape:pageopacity="0.0" inkscape:pageshadow="2" inkscape:showpageshadow="false" inkscape:snap-bbox="true" inkscape:snap-bbox-edge-midpoints="true" inkscape:snap-bbox-midpoints="true" inkscape:window-height="711" inkscape:window-maximized="1" inkscape:window-width="1366" inkscape:window-x="0" inkscape:window-y="30" inkscape:zoom="0.35" pagecolor="#ffffff" showgrid="false" showguides="false" units="px">
	<sodipodi:guide  id="guide869" inkscape:locked="false" orientation="1,0" position="5.605989,150.21715"></sodipodi:guide>
	<sodipodi:guide  id="guide871" inkscape:locked="false" orientation="1,0" position="309.18215,150.21715"></sodipodi:guide>
	<sodipodi:guide  id="guide823" inkscape:locked="false" orientation="1,0" position="73.339049,116.35049"></sodipodi:guide>
	<sodipodi:guide  id="guide825" inkscape:locked="false" orientation="1,0" position="278.22089,116.35049"></sodipodi:guide>
	<sodipodi:guide  id="guide827" inkscape:locked="false" orientation="0,1" position="309.18227,116.35049"></sodipodi:guide>
</sodipodi:namedview>
<g id="layer1" transform="translate(-141.21625,-244.81668)" inkscape:groupmode="layer" inkscape:label="Layer 1">
	<g id="g898" transform="translate(-5.6059837,116.35049)">
		<ellipse id="path875" class="st0" cx="242.8" cy="224.5" rx="96" ry="96"/>
		<path id="path847" inkscape:connector-curvature="0" class="st1" d="M233.1,300.8c-13.4-1.7-26.3-7.1-37.5-15.6
			c-3.7-2.8-10.5-9.7-13.5-13.6c-8.4-11-13.6-23.4-15.3-36.5c-0.7-5.6-0.7-16,0-21.1c3.7-25.7,19.9-47.8,43.1-58.8
			c10.8-5.1,20.7-7.3,33.3-7.3c20.3,0,38.3,7.3,53,21.4c7,6.8,11.8,13.2,15.8,21.6c5.5,11.3,7.7,21.1,7.7,34
			c0,17-4.9,31.9-15.1,45.7c-3,4.1-9,10.3-12.9,13.6c-10.8,8.8-24.5,14.8-38.2,16.6C248.6,301.2,237.4,301.3,233.1,300.8
			L233.1,300.8z M261.6,287c8.2-2.6,14.9-6.1,21.4-11.1c3.4-2.7,9.4-8.7,11.9-12c6.8-9,11.4-20.2,12.7-31c0.7-5.2,0.3-16.3-0.7-21.1
			c-2.6-12.7-8.3-23.4-17.3-32.6c-5.6-5.7-10.6-9.5-17.2-12.8c-9.9-5-18.4-7-29.5-7c-11.8,0-22.2,2.7-32.4,8.5
			c-9.3,5.3-19,14.9-24.2,24.3c-3.9,6.9-6.7,15.1-7.8,22.6c-0.7,4.9-0.7,14.6,0,19.3c1.4,9.4,5,18.7,10.2,26.5
			c2.8,4.3,2.7,4.2,5.2,2.8c4.5-2.5,5.6-3.8,8-8.5c2.8-5.6,5.9-10.4,8.6-13.8c3.2-3.9,3.6-4.6,5.2-8.3c0.8-1.8,2.2-4.6,3.2-6
			l1.7-2.7l-2.2-2.2c-3-2.9-5.5-6.2-5.9-7.9c-0.5-1.7,0.1-2.7,2.3-4c2.3-1.3,3.9-1.7,9.9-2.3c2.9-0.3,6.1-0.9,7.1-1.2
			c1-0.4,4-2,6.6-3.6c7.7-4.6,8.3-4.9,12.9-4.8c3.9,0.1,3.9,0.1,6.2-1.3c4.8-2.9,11.7-8.2,20.9-15.8c1.7-1.5,3.4-2.6,3.7-2.6
			c1.3,0.2,3.7,6.1,4,9.9c0.2,2.3-0.2,4.6-1.6,8.1c-0.4,1-0.5,1.9-0.4,2.1c0.4,0.4,1.7-1.3,1.7-2.2c0-1.1,0.7-1.2,1.7-0.3
			c0.7,0.7,1.4,0.9,2.8,0.9c1.6,0,2,0.1,2.6,1c1.1,1.4,1.3,5.3,0.5,7.7c-0.8,2.4-3.2,5.1-5.4,6.2c-1.9,0.9-5.9,4.8-7.7,7.5
			c-0.7,1.1-2,3.3-2.9,4.9c-0.9,1.6-2.4,4.1-3.4,5.5c-1.9,2.7-3.5,6.6-5.1,12c-0.9,3.2-1,4-1,11.1c0,8.6-0.5,10.7-2.8,13.3
			c-2.6,3-5.3,9.6-5.5,13.8c-0.1,2.6-0.5,5.2-1.1,7.1C258.3,287.9,258.7,287.9,261.6,287L261.6,287z"/>
		
			<path id="path814" inkscape:flatsided="true" inkscape:randomized="0" inkscape:rounded="0" sodipodi:arg1="1.5707963" sodipodi:arg2="2.3561945" sodipodi:cx="18.854025" sodipodi:cy="172.98837" sodipodi:r1="1.6036172" sodipodi:r2="1.1339285" sodipodi:sides="4" sodipodi:type="star" class="st0" d="
			M245.9,207.1l3.5-4.4l5.6-0.8l-3.5,4.4L245.9,207.1z"/>
	</g>
	<text transform="matrix(1 0 0 1 333.2153 391.4319)" class="st0 st2 st3"> LibreWolf  </text>
	<g id="flowRoot826" transform="matrix(0.26458333,0,0,0.26458333,208.94958,260.82715)">
	</g>
</g>
</svg>
