<?xml version="1.0" encoding="UTF-8" standalone="no"?>
<!-- Created with Inkscape (http://www.inkscape.org/) -->

<svg
   xmlns:dc="http://purl.org/dc/elements/1.1/"
   xmlns:cc="http://creativecommons.org/ns#"
   xmlns:rdf="http://www.w3.org/1999/02/22-rdf-syntax-ns#"
   xmlns:svg="http://www.w3.org/2000/svg"
   xmlns="http://www.w3.org/2000/svg"
   xmlns:sodipodi="http://sodipodi.sourceforge.net/DTD/sodipodi-0.dtd"
   xmlns:inkscape="http://www.inkscape.org/namespaces/inkscape"
   width="314.78802mm"
   height="67.733337mm"
   viewBox="0 0 314.78802 67.733337"
   version="1.1"
   id="svg8"
   inkscape:version="0.92.4 5da689c313, 2019-01-14"
   sodipodi:docname="Logo.svg">
  <defs
     id="defs2" />
  <sodipodi:namedview
     id="base"
     pagecolor="#ffffff"
     bordercolor="#666666"
     borderopacity="1.0"
     inkscape:pageopacity="0.0"
     inkscape:pageshadow="2"
     inkscape:zoom="0.49497475"
     inkscape:cx="514.59448"
     inkscape:cy="33.729412"
     inkscape:document-units="mm"
     inkscape:current-layer="layer1"
     showgrid="false"
     inkscape:window-width="1366"
     inkscape:window-height="711"
     inkscape:window-x="0"
     inkscape:window-y="30"
     inkscape:window-maximized="1"
     inkscape:showpageshadow="false"
     units="px"
     fit-margin-top="0"
     fit-margin-left="0"
     fit-margin-right="0"
     fit-margin-bottom="0"
     showguides="true"
     inkscape:guide-bbox="true"
     inkscape:snap-bbox="true"
     inkscape:bbox-paths="true"
     inkscape:bbox-nodes="true"
     inkscape:snap-bbox-edge-midpoints="true"
     inkscape:snap-bbox-midpoints="true">
    <sodipodi:guide
       position="5.6059918,150.21715"
       orientation="1,0"
       id="guide869"
       inkscape:locked="false" />
    <sodipodi:guide
       position="309.18215,150.21715"
       orientation="1,0"
       id="guide871"
       inkscape:locked="false" />
    <sodipodi:guide
       position="73.339052,116.35049"
       orientation="1,0"
       id="guide823"
       inkscape:locked="false" />
    <sodipodi:guide
       position="278.22089,116.35049"
       orientation="1,0"
       id="guide825"
       inkscape:locked="false" />
    <sodipodi:guide
       position="309.18227,116.35049"
       orientation="0,1"
       id="guide827"
       inkscape:locked="false" />
  </sodipodi:namedview>
  <metadata
     id="metadata5">
    <rdf:RDF>
      <cc:Work
         rdf:about="">
        <dc:format>image/svg+xml</dc:format>
        <dc:type
           rdf:resource="http://purl.org/dc/dcmitype/StillImage" />
        <dc:title />
      </cc:Work>
    </rdf:RDF>
  </metadata>
  <g
     inkscape:label="Layer 1"
     inkscape:groupmode="layer"
     id="layer1"
     transform="translate(-141.21625,-244.81668)">
    <path
       style="fill:#00acff;fill-opacity:1;stroke:none;stroke-width:15.22538185;stroke-miterlimit:4;stroke-dasharray:none"
       d="M 128 0 C 57.088004 0 0 57.088004 0 128 C 0 198.912 57.088004 256 128 256 L 1061.75 256 C 1132.662 256 1189.75 198.912 1189.75 128 C 1189.75 57.088004 1132.662 0 1061.75 0 L 128 0 z M 128.00391 25.785156 L 1061.7461 25.785156 C 1118.3729 25.785156 1163.9609 71.37317 1163.9609 128 C 1163.9609 184.62683 1118.3729 230.21484 1061.7461 230.21484 L 128.00391 230.21484 C 71.377072 230.21484 25.789062 184.62683 25.789062 128 C 25.789062 71.37317 71.377072 25.785156 128.00391 25.785156 z M 399.98438 60.511719 C 397.42438 60.511719 396.14453 61.791564 396.14453 64.351562 L 396.14453 81.056641 C 396.14453 83.616641 397.42438 84.896484 399.98438 84.896484 L 416.68945 84.896484 C 419.24945 84.896484 420.5293 83.616641 420.5293 81.056641 L 420.5293 64.160156 C 420.5293 61.728156 419.24945 60.511719 416.68945 60.511719 L 399.98438 60.511719 z M 446.4668 60.511719 C 443.7788 60.511719 442.43555 61.856922 442.43555 64.544922 L 442.43555 191.45508 C 442.43555 194.14308 443.7788 195.48828 446.4668 195.48828 L 492.54688 195.48828 C 502.65886 195.48828 510.4667 192.79983 515.9707 187.42383 C 521.4747 182.04783 524.22656 174.30341 524.22656 164.19141 L 524.22656 128.48047 C 524.22656 118.36847 521.4747 110.62405 515.9707 105.24805 C 510.4667 99.872044 502.65886 97.183594 492.54688 97.183594 L 486.40234 97.183594 C 482.43434 97.183594 478.65822 98.079094 475.07422 99.871094 C 471.49022 101.66309 468.99589 104.28814 467.58789 107.74414 L 466.81836 107.74414 L 466.81836 64.544922 C 466.81836 61.856922 465.47511 60.511719 462.78711 60.511719 L 446.4668 60.511719 z M 963.05273 60.511719 C 960.36473 60.511719 959.01953 61.856922 959.01953 64.544922 L 959.01953 191.45508 C 959.01953 194.14308 960.36473 195.48828 963.05273 195.48828 L 979.37109 195.48828 C 982.05909 195.48828 983.4043 194.14308 983.4043 191.45508 L 983.4043 64.544922 C 983.4043 61.856922 982.05909 60.511719 979.37109 60.511719 L 963.05273 60.511719 z M 1045.4375 60.511719 C 1035.3255 60.511719 1027.5811 63.200172 1022.2051 68.576172 C 1016.9571 73.952172 1014.334 81.696594 1014.334 91.808594 L 1014.334 95.455078 C 1014.334 96.863078 1013.5653 97.568359 1012.0293 97.568359 L 1003.1973 97.568359 C 1001.6613 97.568359 1000.5736 97.823938 999.93359 98.335938 C 999.42159 98.847936 999.16602 99.872206 999.16602 101.4082 L 999.16602 114.65625 C 999.16602 117.34425 1000.5093 118.6875 1003.1973 118.6875 L 1012.0293 118.6875 C 1013.5653 118.6875 1014.334 119.39278 1014.334 120.80078 L 1014.334 191.45508 C 1014.334 194.14308 1015.6772 195.48828 1018.3652 195.48828 L 1034.4941 195.48828 C 1037.3101 195.48828 1038.7188 194.14308 1038.7188 191.45508 L 1038.7188 120.80078 C 1038.7187 119.39278 1039.4221 118.6875 1040.8301 118.6875 L 1056.1895 118.6875 C 1058.8775 118.6875 1060.2227 117.34425 1060.2227 114.65625 L 1060.2227 101.4082 C 1060.2227 100.0002 1059.9017 99.039344 1059.2617 98.527344 C 1058.7497 97.887344 1057.7255 97.568359 1056.1895 97.568359 L 1040.8301 97.568359 C 1039.4221 97.568359 1038.7188 96.863078 1038.7188 95.455078 L 1038.7188 92.960938 C 1038.7187 88.864938 1039.4221 85.984312 1040.8301 84.320312 C 1042.3661 82.528314 1045.1813 81.632812 1049.2773 81.632812 L 1056.3828 81.632812 C 1058.9428 81.632813 1060.2227 80.287609 1060.2227 77.599609 L 1060.2227 64.351562 C 1060.2227 62.943564 1059.9651 61.984656 1059.4531 61.472656 C 1058.9411 60.832656 1057.9188 60.511719 1056.3828 60.511719 L 1045.4375 60.511719 z M 314.88672 72.03125 C 312.19872 72.03125 310.85547 73.376453 310.85547 76.064453 L 310.85547 191.45508 C 310.85547 194.14308 312.19872 195.48828 314.88672 195.48828 L 378.05469 195.48828 C 380.61469 195.48828 381.89453 194.14308 381.89453 191.45508 L 381.89453 178.40039 C 381.89453 175.58439 380.61469 174.17578 378.05469 174.17578 L 337.54297 174.17578 C 336.00697 174.17578 335.23828 173.47245 335.23828 172.06445 L 335.23828 76.064453 C 335.23828 73.376453 333.89503 72.03125 331.20703 72.03125 L 314.88672 72.03125 z M 701.66211 72.03125 C 698.59011 72.03125 697.24686 73.376453 697.63086 76.064453 L 718.17383 191.45508 C 718.55783 194.14308 720.15861 195.48828 722.97461 195.48828 L 749.85352 195.48828 C 752.41352 195.48828 753.95089 194.14308 754.46289 191.45508 L 771.93359 101.4082 L 772.70117 101.4082 L 789.98242 191.45508 C 790.36642 194.14308 791.90184 195.48828 794.58984 195.48828 L 821.66211 195.48828 C 824.22211 195.48828 825.69414 194.14308 826.07812 191.45508 L 846.81445 76.255859 C 847.19845 73.439859 845.85325 72.03125 842.78125 72.03125 L 822.81445 72.03125 C 819.87045 72.03125 818.33308 73.439859 818.20508 76.255859 L 807.26172 170.7207 L 805.72656 170.7207 L 786.91016 75.296875 C 786.52616 73.120875 785.11755 72.03125 782.68555 72.03125 L 761.18164 72.03125 C 758.87764 72.03125 757.53439 73.184281 757.15039 75.488281 L 738.71875 170.7207 L 737.37305 170.7207 L 726.23828 76.064453 C 726.11028 73.376453 724.57486 72.03125 721.63086 72.03125 L 701.66211 72.03125 z M 399.98438 97.568359 C 397.42438 97.568359 396.14453 98.911608 396.14453 101.59961 L 396.14453 191.45508 C 396.14453 194.14308 397.48973 195.48828 400.17773 195.48828 L 416.68945 195.48828 C 418.09745 195.48828 419.05636 195.2327 419.56836 194.7207 C 420.20836 194.2087 420.5293 193.11908 420.5293 191.45508 L 420.5293 101.59961 C 420.5293 98.911608 419.18409 97.568359 416.49609 97.568359 L 399.98438 97.568359 z M 547.3418 97.568359 C 544.6538 97.568359 543.31055 98.911608 543.31055 101.59961 L 543.31055 191.45508 C 543.31055 194.14308 544.6538 195.48828 547.3418 195.48828 L 563.66211 195.48828 C 566.35011 195.48828 567.69336 194.14308 567.69336 191.45508 L 567.69336 133.66406 C 567.69336 123.68006 572.10941 118.6875 580.94141 118.6875 L 594.18945 118.6875 C 595.59745 118.8155 596.55831 118.62333 597.07031 118.11133 C 597.71031 117.47133 598.0293 116.38366 598.0293 114.84766 L 598.0293 101.59961 C 598.0293 98.911608 596.74945 97.568359 594.18945 97.568359 L 587.27734 97.568359 C 583.30934 97.568359 579.53322 98.463858 575.94922 100.25586 C 572.36522 102.04786 569.87089 104.67291 568.46289 108.12891 L 567.69336 108.12891 L 567.69336 101.59961 C 567.69336 98.911608 566.35011 97.568359 563.66211 97.568359 L 547.3418 97.568359 z M 640.19531 97.568359 C 630.08331 97.568359 622.27548 100.25681 616.77148 105.63281 C 611.26748 111.00881 608.51562 118.75128 608.51562 128.86328 L 608.51562 164.19141 C 608.51563 174.30341 611.26748 182.04783 616.77148 187.42383 C 622.27548 192.79983 630.08331 195.48828 640.19531 195.48828 L 682.62695 195.48828 C 684.16295 195.48828 685.18722 195.2327 685.69922 194.7207 C 686.33922 194.0807 686.6582 193.05644 686.6582 191.64844 L 686.6582 178.97656 C 686.6582 176.16056 685.31495 174.75195 682.62695 174.75195 L 643.84375 174.75195 C 639.74775 174.75195 636.80372 173.91986 635.01172 172.25586 C 633.34772 170.46386 632.51562 167.58323 632.51562 163.61523 L 632.51562 159.39258 C 632.51563 157.98458 633.28236 157.2793 634.81836 157.2793 L 683.01172 157.2793 C 685.69972 157.2793 687.04297 155.93605 687.04297 153.24805 L 687.04297 128.86328 C 687.04297 118.75128 684.29111 111.00881 678.78711 105.63281 C 673.28311 100.25681 665.47528 97.568359 655.36328 97.568359 L 640.19531 97.568359 z M 889.94531 97.568359 C 879.83331 97.568359 872.02548 100.25681 866.52148 105.63281 C 861.01748 111.00881 858.26562 118.75128 858.26562 128.86328 L 858.26562 164.19141 C 858.26563 174.30341 861.01748 182.04783 866.52148 187.42383 C 872.02548 192.79983 879.83331 195.48828 889.94531 195.48828 L 907.0332 195.48828 C 917.0172 195.48828 924.76164 192.79983 930.26562 187.42383 C 935.89762 181.91983 938.71289 174.17541 938.71289 164.19141 L 938.71289 128.86328 C 938.71289 118.87928 935.89762 111.20022 930.26562 105.82422 C 924.76164 100.32022 917.0172 97.568359 907.0332 97.568359 L 889.94531 97.568359 z M 480.06641 118.30469 L 488.51562 118.30469 C 492.61162 118.30469 495.4903 119.20019 497.1543 120.99219 C 498.9463 122.65619 499.84375 125.53681 499.84375 129.63281 L 499.84375 163.03906 C 499.84375 167.13506 498.9463 170.07909 497.1543 171.87109 C 495.4903 173.53509 492.61162 174.36719 488.51562 174.36719 L 468.93164 174.36719 C 467.52364 174.36719 466.81836 173.66386 466.81836 172.25586 L 466.81836 132.89648 C 466.81836 123.16848 471.23441 118.30469 480.06641 118.30469 z M 643.84375 118.49609 L 651.90625 118.49609 C 656.00225 118.49609 658.88288 119.32819 660.54688 120.99219 C 662.21086 122.65619 663.04297 125.53681 663.04297 129.63281 L 663.04297 138.84766 C 663.04297 140.25566 662.33964 140.96094 660.93164 140.96094 L 634.81836 140.96094 C 633.41036 140.96094 632.70703 140.25566 632.70703 138.84766 L 632.70703 129.63281 C 632.70703 125.53681 633.53914 122.65619 635.20312 120.99219 C 636.86712 119.32819 639.74775 118.49609 643.84375 118.49609 z M 893.59375 118.49609 L 903.38477 118.49609 C 907.48077 118.49609 910.36139 119.32819 912.02539 120.99219 C 913.81739 122.65619 914.71289 125.53681 914.71289 129.63281 L 914.71289 163.42383 C 914.71289 167.51983 913.81739 170.40045 912.02539 172.06445 C 910.36139 173.72845 907.48077 174.56055 903.38477 174.56055 L 893.59375 174.56055 C 889.49775 174.56055 886.61712 173.72845 884.95312 172.06445 C 883.28914 170.40045 882.45703 167.51983 882.45703 163.42383 L 882.45703 129.63281 C 882.45703 125.53681 883.28914 122.65619 884.95312 120.99219 C 886.61712 119.32819 889.49775 118.49609 893.59375 118.49609 z "
       transform="matrix(0.26458333,0,0,0.26458333,141.21625,244.81668)"
       id="rect815" />
    <path
       style="fill:#00acff;fill-opacity:1;stroke:none;stroke-width:2.0237751;stroke-miterlimit:4;stroke-dasharray:none"
       d="M 128 0 A 127.9995 128.00001 0 0 0 0 128 A 127.9995 128.00001 0 0 0 128 256 A 127.9995 128.00001 0 0 0 255.99805 128 A 127.9995 128.00001 0 0 0 128 0 z M 128.32617 25.785156 C 155.40989 25.785156 179.45052 35.489074 198.93164 54.285156 C 208.31647 63.339922 214.60908 71.928334 219.99805 83.035156 C 227.28755 98.059156 230.24023 111.12899 230.24023 128.37305 C 230.24023 151.07357 223.68396 170.86888 210.06836 189.28516 C 206.0223 194.75776 198.11801 203.07158 192.87305 207.37109 C 178.48605 219.16473 160.14782 227.14392 141.95117 229.5293 C 135.66381 230.3535 120.81045 230.45774 115.03711 229.7168 C 97.10669 227.41601 79.95705 220.26851 64.990234 208.85938 C 60.10871 205.13828 50.949496 195.91933 46.951172 190.70312 C 35.754624 176.09621 28.79096 159.51918 26.494141 141.99805 C 25.510821 134.49708 25.516681 120.70522 26.505859 113.84961 C 31.449746 79.578063 53.018783 50.182722 83.990234 35.503906 C 98.395941 28.676303 111.58124 25.785156 128.32617 25.785156 z M 127.99023 41.267578 C 112.25198 41.25246 98.451161 44.860062 84.792969 52.560547 C 72.359192 59.570663 59.504592 72.438272 52.464844 84.923828 C 47.280126 94.119381 43.486565 105.032 42.005859 115.00391 C 41.03505 121.54211 41.014998 134.5249 41.966797 140.78516 C 43.871943 153.31387 48.624198 165.69619 55.513672 176.08203 C 59.275851 181.75351 59.15776 181.6918 62.476562 179.79297 C 68.413331 176.39631 69.963162 174.75205 73.197266 168.41602 C 76.979174 161.00678 81.022301 154.53208 84.675781 150.03516 C 88.893054 144.84409 89.472262 143.92071 91.587891 139.01953 C 92.652432 136.55343 94.562261 132.93111 95.832031 130.9707 L 98.140625 127.40625 L 95.154297 124.4707 C 91.187154 120.57144 87.88645 116.15082 87.265625 113.90234 C 86.631571 111.60598 87.381019 110.32498 90.361328 108.60352 C 93.374972 106.86278 95.529551 106.36103 103.58398 105.5332 C 107.50574 105.13012 111.7625 104.39237 113.10352 103.88281 C 114.4378 103.37583 118.42461 101.20558 121.96289 99.060547 C 132.1788 92.8673 133.04324 92.546913 139.16797 92.679688 C 144.34093 92.791938 144.35069 92.789519 147.41797 90.935547 C 153.8457 87.050117 163.07725 80.039865 175.22461 69.818359 C 177.55401 67.858296 179.79776 66.320832 180.21094 66.400391 C 181.92919 66.731477 185.08506 74.473386 185.56445 79.535156 C 185.8551 82.60504 185.26047 85.641296 183.43945 90.392578 C 182.9426 91.688994 182.71481 92.926503 182.93164 93.142578 C 183.45223 93.661356 185.24023 91.428736 185.24023 90.259766 C 185.24023 88.769309 186.22587 88.600301 187.56836 89.859375 C 188.54438 90.774701 189.38667 91.035156 191.34961 91.035156 C 193.4929 91.035156 194.02285 91.235469 194.85938 92.351562 C 196.27884 94.245559 196.61178 99.406822 195.52539 102.67773 C 194.46848 105.85976 191.27401 109.52991 188.375 110.89258 C 185.781 112.11193 180.52987 117.23835 178.07227 120.95117 C 177.1315 122.37243 175.36739 125.33513 174.15234 127.53516 C 172.9373 129.73514 170.89902 133.05925 169.62305 134.92188 C 167.11234 138.58691 164.96194 143.69947 162.88672 150.93945 C 161.66763 155.19252 161.56601 156.29964 161.51562 165.78516 C 161.45478 177.24351 160.86141 180.05583 157.76367 183.58398 C 154.24187 187.59505 150.72716 196.40324 150.43164 201.95703 C 150.24493 205.46258 149.70497 208.87946 148.9375 211.41016 C 148.59961 212.52451 149.23108 212.51105 152.99023 211.32617 C 163.94485 207.87301 172.87193 203.23297 181.49023 196.51172 C 186.07287 192.9378 193.99342 184.94084 197.31445 180.53516 C 206.32216 168.58576 212.45054 153.61897 214.25391 139.16602 C 215.12252 132.20484 214.61883 117.47637 213.29297 111.08398 C 209.78028 94.150005 202.21109 79.847157 190.28906 67.607422 C 182.85636 59.976669 176.09023 54.946856 167.38477 50.582031 C 154.17528 43.958976 142.85757 41.282658 127.99023 41.267578 z M 144.16211 97.949219 L 136.73242 98.990234 L 132.11523 104.9043 L 139.54492 103.86133 L 144.16211 97.949219 z "
       transform="matrix(0.26458333,0,0,0.26458333,141.21625,244.81668)"
       id="path875" />
  </g>
</svg>
